<svg xmlns="http://www.w3.org/2000/svg" xmlns:xlink="http://www.w3.org/1999/xlink"><symbol id="facebook"><g fill="none"><path d="M8.832 0C5.696 0 3.548 1.822 3.548 5.17v2.884H0v3.912h3.548V22h4.24V11.966h3.539l.531-3.912h-4.07V5.556c0-1.133.332-1.905 2.037-1.905H12V.154C11.624.106 10.334 0 8.832 0z" fill="currentColor"/></g></symbol><symbol id="instagram"><g fill="none"><path d="M6.657 0C2.986 0 0 3.125 0 6.965v10.072C0 20.877 2.986 24 6.657 24h9.686C20.014 24 23 20.877 23 17.037V6.965C23 3.125 20.014 0 16.343 0H6.657zm0 2.063h9.686c2.613 0 4.686 2.169 4.686 4.902v10.072c0 2.733-2.073 4.9-4.686 4.9H6.657c-2.613 0-4.685-2.167-4.685-4.9V6.965c0-2.733 2.072-4.902 4.685-4.902zm11.016 2.063c-.762 0-1.38.646-1.38 1.443s.618 1.443 1.38 1.443c.762 0 1.379-.646 1.379-1.443s-.617-1.443-1.38-1.443zM11.5 5.821C8.249 5.82 5.593 8.599 5.593 12c0 3.4 2.656 6.18 5.907 6.18s5.909-2.78 5.909-6.18-2.658-6.18-5.909-6.18zm0 2.063c2.185 0 3.937 1.83 3.937 4.116 0 2.286-1.752 4.116-3.937 4.116-2.185 0-3.935-1.83-3.935-4.116 0-2.286 1.75-4.116 3.935-4.116z" fill="currentColor"/></g></symbol><symbol id="logo-footer"><g fill="none"><path d="M22.428.736c-.597.037-1.036.112-1.316.224-.261.112-.439.327-.532.644-.093.317-.14.83-.14 1.54v13.888c0 .71.047 1.223.14 1.54.112.317.299.532.56.644.261.112.69.187 1.288.224V20c-1.008-.056-2.576-.084-4.704-.084-2.147 0-3.799.028-4.956.084v-.56c.597-.037 1.027-.112 1.288-.224.28-.112.467-.327.56-.644.093-.317.14-.83.14-1.54v-6.72h-6.3v6.72c0 .71.047 1.223.14 1.54.112.317.299.532.56.644.261.112.69.187 1.288.224V20c-1.083-.056-2.641-.084-4.676-.084-2.259 0-3.92.028-4.984.084v-.56c.597-.037 1.027-.112 1.288-.224.28-.112.467-.327.56-.644.093-.317.14-.83.14-1.54V3.144c0-.71-.056-1.223-.168-1.54-.093-.317-.27-.532-.532-.644C1.811.848 1.382.773.784.736v-.56C1.848.232 3.509.26 5.768.26c2.016 0 3.575-.028 4.676-.084v.56C9.847.773 9.408.848 9.128.96c-.261.112-.439.327-.532.644-.093.317-.14.83-.14 1.54v6.608h6.3V3.144c0-.71-.056-1.223-.168-1.54-.093-.317-.27-.532-.532-.644-.261-.112-.69-.187-1.288-.224v-.56c1.157.056 2.81.084 4.956.084 2.128 0 3.696-.028 4.704-.084v.56zm9.304 4.34c2.296 0 4.07.607 5.32 1.82 1.25 1.195 1.876 3.145 1.876 5.852 0 2.707-.625 4.657-1.876 5.852-1.25 1.195-3.024 1.792-5.32 1.792-2.296 0-4.07-.597-5.32-1.792s-1.876-3.145-1.876-5.852c0-2.707.625-4.657 1.876-5.852 1.25-1.213 3.024-1.82 5.32-1.82zm0 .56c-.597 0-1.073.588-1.428 1.764-.355 1.176-.532 2.959-.532 5.348 0 2.39.177 4.172.532 5.348.355 1.157.83 1.736 1.428 1.736.597 0 1.073-.579 1.428-1.736.355-1.176.532-2.959.532-5.348 0-2.39-.177-4.172-.532-5.348-.355-1.176-.83-1.764-1.428-1.764zm18.729 6.832c2.221.037 3.79.364 4.704.98.933.616 1.4 1.55 1.4 2.8 0 1.232-.439 2.165-1.316 2.8-.878.635-2.334.952-4.368.952-.28 0-.943-.019-1.988-.056a123.698 123.698 0 0 0-3.304-.056c-.635 0-2.035.037-4.2.112v-.588c.578 0 .98-.14 1.204-.42.242-.299.364-.83.364-1.596V8.1c0-.765-.122-1.288-.364-1.568-.224-.299-.626-.448-1.204-.448v-.588c2.016.075 3.322.112 3.92.112.765 0 1.764-.019 2.996-.056a69.595 69.595 0 0 1 1.96-.056c3.864 0 5.796 1.083 5.796 3.248 0 1.008-.476 1.848-1.428 2.52-.934.672-2.324 1.073-4.172 1.204zm-2.464-.056c1.176-.019 1.96-.28 2.352-.784.41-.523.616-1.353.616-2.492 0-.952-.14-1.699-.42-2.24-.262-.541-.766-.812-1.512-.812-.41 0-.69.13-.84.392-.13.261-.196.803-.196 1.624v4.312zm1.12 7c.877 0 1.474-.29 1.792-.868.336-.579.504-1.335.504-2.268 0-1.176-.243-2.016-.728-2.52-.486-.523-1.288-.784-2.408-.784h-.28v4.424c0 .821.074 1.363.224 1.624.168.261.466.392.896.392zm17.29-14.336c2.297 0 4.07.607 5.32 1.82 1.251 1.195 1.877 3.145 1.877 5.852 0 2.707-.626 4.657-1.876 5.852-1.25 1.195-3.024 1.792-5.32 1.792-2.296 0-4.07-.597-5.32-1.792s-1.876-3.145-1.876-5.852c0-2.707.625-4.657 1.876-5.852 1.25-1.213 3.024-1.82 5.32-1.82zm0 .56c-.597 0-1.073.588-1.427 1.764-.355 1.176-.532 2.959-.532 5.348 0 2.39.177 4.172.532 5.348.354 1.157.83 1.736 1.428 1.736.597 0 1.073-.579 1.428-1.736.354-1.176.532-2.959.532-5.348 0-2.39-.178-4.172-.532-5.348-.355-1.176-.83-1.764-1.428-1.764zm17.106-.56c.765 0 1.465.084 2.1.252.653.15 1.185.345 1.596.588.522.299.933.7 1.232 1.204.298.504.448 1.073.448 1.708 0 .784-.252 1.437-.756 1.96-.504.504-1.148.756-1.932.756-.803 0-1.438-.224-1.904-.672-.448-.467-.672-1.083-.672-1.848 0-.672.214-1.26.644-1.764a3.171 3.171 0 0 1 1.652-1.036c-.28-.224-.654-.336-1.12-.336-1.195 0-2.035.644-2.52 1.932-.486 1.27-.728 2.781-.728 4.536 0 1.792.336 3.07 1.008 3.836.672.765 1.502 1.148 2.492 1.148 1.362 0 2.492-.625 3.388-1.876l.476.168a7.73 7.73 0 0 1-2.1 3.36c-.971.933-2.222 1.4-3.752 1.4-2.035 0-3.668-.607-4.9-1.82-1.232-1.213-1.848-3.155-1.848-5.824 0-2.557.653-4.47 1.96-5.74 1.325-1.288 3.07-1.932 5.236-1.932zm23.286.42a55.62 55.62 0 0 0-.196 4.368c0 .859.028 1.53.084 2.016h-.644c-.318-1.307-.691-2.39-1.12-3.248-.43-.877-.878-1.521-1.344-1.932-.448-.41-.868-.616-1.26-.616h-.812v11.032c0 .859.196 1.456.588 1.792.41.336 1.017.504 1.82.504V20l-.812-.028a209.18 209.18 0 0 0-4.088-.084c-.635 0-2.016.028-4.144.084l-.812.028v-.588c.858 0 1.474-.121 1.848-.364.373-.261.56-.812.56-1.652V6.084h-.812c-.392 0-.822.205-1.288.616-.448.41-.887 1.055-1.316 1.932-.43.859-.803 1.941-1.12 3.248h-.644c.056-.485.084-1.157.084-2.016 0-1.27-.066-2.725-.196-4.368h3.164l1.54.028a49.96 49.96 0 0 0 3.08.084c1.194 0 2.24-.028 3.136-.084l1.54-.028h3.164zm19.915.588c-.578 0-.989.15-1.232.448-.224.28-.336.803-.336 1.568v9.296c0 .765.112 1.297.336 1.596.243.28.654.42 1.232.42V20c-2.016-.075-3.322-.112-3.92-.112-.634 0-1.96.037-3.976.112v-.588c.486 0 .822-.14 1.008-.42.187-.299.28-.83.28-1.596V8.968l-4.508 8.876c.038.597.15 1.008.336 1.232.187.224.504.336.952.336V20c-1.866-.075-3.098-.112-3.696-.112-.634 0-2.034.037-4.2.112v-.588c.579 0 .98-.14 1.204-.42.243-.299.364-.83.364-1.596V8.1c0-.765-.121-1.288-.364-1.568-.224-.299-.625-.448-1.204-.448v-.588c2.016.075 3.323.112 3.92.112.635 0 1.96-.037 3.976-.112v.588c-.485 0-.821.15-1.008.448-.186.28-.28.803-.28 1.568v8.512l4.508-8.82c-.018-.653-.13-1.101-.336-1.344-.186-.243-.504-.364-.952-.364v-.588c1.867.075 3.099.112 3.696.112.635 0 2.035-.037 4.2-.112v.588zm25.141 11.788c.224.541.42.924.588 1.148.187.205.467.336.84.392V20c-.746.112-1.474.168-2.184.168-1.306 0-2.342-.233-3.108-.7-.746-.467-1.25-1.26-1.512-2.38a15.64 15.64 0 0 0-.56-1.876c-.224-.69-.513-1.232-.868-1.624-.448-.523-1.092-.784-1.932-.784l-.392.028v4.564c0 .765.112 1.297.336 1.596.243.28.654.42 1.232.42V20c-2.165-.075-3.556-.112-4.172-.112-.653 0-1.988.037-4.004.112v-.588c.579 0 .98-.14 1.204-.42.243-.299.364-.83.364-1.596V8.1c0-.765-.121-1.288-.364-1.568-.224-.299-.625-.448-1.204-.448v-.588c2.166.075 3.575.112 4.228.112.616 0 1.932-.037 3.948-.112v.588c-.578 0-.989.15-1.232.448-.224.28-.336.803-.336 1.568v4.228c.728-.056 1.279-.196 1.652-.42.392-.224.691-.55.896-.98.206-.43.411-1.064.616-1.904.262-1.027.495-1.801.7-2.324.224-.523.551-.924.98-1.204.43-.28 1.036-.42 1.82-.42 1.064 0 1.858.243 2.38.728.542.485.812 1.139.812 1.96 0 .803-.233 1.437-.7 1.904-.466.448-1.064.672-1.792.672a3.397 3.397 0 0 1-1.876-.56c-.56-.373-.84-.933-.84-1.68 0-.467.131-.915.392-1.344.262-.43.672-.793 1.232-1.092-.56.037-.989.168-1.288.392a2.03 2.03 0 0 0-.672.924c-.149.392-.326.999-.532 1.82l-.168.7c-.186.765-.392 1.353-.616 1.764-.205.392-.532.7-.98.924.448-.056.878-.084 1.288-.084 1.83 0 3.174.495 4.032 1.484.262.299.467.635.616 1.008.168.373.355.877.56 1.512.206.653.411 1.241.616 1.764zM166.903 5.58c1.064 0 1.783-.037 2.156-.112v.588c-.392.13-.756.401-1.092.812-.317.41-.616 1.045-.896 1.904l-3.5 10.416-1.176 3.388c-.336.97-.746 1.643-1.232 2.016-.578.448-1.446.672-2.604.672a5.258 5.258 0 0 1-2.604-.672c-.802-.43-1.204-1.083-1.204-1.96 0-.653.252-1.176.756-1.568.504-.392 1.167-.588 1.988-.588.784 0 1.4.177 1.848.532.448.355.672.868.672 1.54 0 .448-.158.868-.476 1.26-.298.41-.746.71-1.344.896.187.037.504.056.952.056 1.288 0 2.175-.747 2.66-2.24l.14-.476-6.524-14.42c-.28-.635-.56-1.055-.84-1.26-.261-.205-.522-.308-.784-.308v-.588c1.494.112 3.015.168 4.564.168 1.214 0 2.567-.056 4.06-.168v.588c-.541 0-.961.037-1.26.112-.28.075-.42.243-.42.504a1 1 0 0 0 .112.448l3.444 8.204 1.176-3.584c.355-1.083.532-2.035.532-2.856 0-.877-.186-1.559-.56-2.044a1.938 1.938 0 0 0-1.484-.784v-.588c.691.075 1.671.112 2.94.112zm17.24.504c-.485 0-.821.14-1.008.42-.187.28-.28.812-.28 1.596v9.296c0 .765.093 1.297.28 1.596.187.28.523.42 1.008.42V20c-1.867-.075-3.108-.112-3.724-.112-.616 0-2.007.037-4.172.112v-.588c.579 0 .98-.14 1.204-.42.243-.299.364-.83.364-1.596V8.1c0-.765-.093-1.288-.28-1.568-.187-.299-.523-.448-1.008-.448h-.252c-.355 0-.607.065-.756.196-.149.112-.252.28-.308.504-.037.224-.084.663-.14 1.316-.205 2.277-.42 4.135-.644 5.572-.205 1.419-.523 2.688-.952 3.808-.392.99-.859 1.727-1.4 2.212-.541.467-1.176.7-1.904.7-.803 0-1.531-.261-2.184-.784-.653-.523-.98-1.297-.98-2.324 0-.859.243-1.54.728-2.044.504-.504 1.157-.756 1.96-.756.784 0 1.381.243 1.792.728.429.467.644 1.045.644 1.736 0 1.27-.747 2.221-2.24 2.856.112.037.252.056.42.056 1.064 0 1.932-.84 2.604-2.52.429-1.083.756-2.399.98-3.948.243-1.568.439-3.332.588-5.292.056-.747-.103-1.27-.476-1.568-.355-.299-.933-.448-1.736-.448v-.588c.411.037.971.056 1.68.056.485 0 .849-.01 1.092-.028l1.652-.028c.747 0 1.549.019 2.408.056.709.037 1.232.056 1.568.056.448 0 1.605-.037 3.472-.112v.588zm10.82 5.488c2.277 0 3.994.373 5.152 1.12 1.157.728 1.736 1.68 1.736 2.856 0 .765-.252 1.484-.756 2.156-.504.672-1.307 1.223-2.408 1.652-1.102.43-2.511.644-4.228.644-.336 0-.896-.019-1.68-.056a55.571 55.571 0 0 0-2.24-.056c-.56 0-1.848.037-3.864.112v-.588c.485 0 .821-.14 1.008-.42.186-.299.28-.83.28-1.596V8.1c0-.765-.094-1.288-.28-1.568-.187-.299-.523-.448-1.008-.448v-.588c1.866.075 3.108.112 3.724.112.616 0 2.006-.037 4.172-.112v.588c-.579 0-.99.15-1.232.448-.224.28-.336.803-.336 1.568v3.5l1.96-.028zm-.896 7.84c1.754 0 2.632-1.185 2.632-3.556 0-1.325-.28-2.268-.84-2.828-.542-.56-1.466-.84-2.772-.84h-.084v6.188c0 .448.065.737.196.868.13.112.42.168.868.168zm24.704-13.916a56.112 56.112 0 0 0-.196 4.368c0 .859.028 1.53.084 2.016h-.644c-.317-1.307-.69-2.39-1.12-3.248-.429-.877-.877-1.521-1.344-1.932-.448-.41-.868-.616-1.26-.616h-.812v11.032c0 .859.196 1.456.588 1.792.411.336 1.018.504 1.82.504V20l-.812-.028c-2.128-.056-3.49-.084-4.088-.084-.634 0-2.016.028-4.144.084l-.812.028v-.588c.859 0 1.475-.121 1.848-.364.374-.261.56-.812.56-1.652V6.084h-.812c-.392 0-.821.205-1.288.616-.448.41-.886 1.055-1.316 1.932-.429.859-.802 1.941-1.12 3.248h-.644c.056-.485.084-1.157.084-2.016 0-1.27-.065-2.725-.196-4.368h3.164l1.54.028c.896.056 1.923.084 3.08.084 1.195 0 2.24-.028 3.136-.084l1.54-.028h3.164zm14.394.084c1.064 0 1.783-.037 2.156-.112v.588c-.392.13-.756.401-1.092.812-.317.41-.616 1.045-.896 1.904l-3.5 10.416-1.176 3.388c-.336.97-.747 1.643-1.232 2.016-.579.448-1.447.672-2.604.672a5.258 5.258 0 0 1-2.604-.672c-.803-.43-1.204-1.083-1.204-1.96 0-.653.252-1.176.756-1.568.504-.392 1.167-.588 1.988-.588.784 0 1.4.177 1.848.532.448.355.672.868.672 1.54 0 .448-.159.868-.476 1.26-.299.41-.747.71-1.344.896.187.037.504.056.952.056 1.288 0 2.175-.747 2.66-2.24l.14-.476-6.524-14.42c-.28-.635-.56-1.055-.84-1.26-.261-.205-.523-.308-.784-.308v-.588c1.493.112 3.015.168 4.564.168 1.213 0 2.567-.056 4.06-.168v.588c-.541 0-.961.037-1.26.112-.28.075-.42.243-.42.504 0 .15.037.299.112.448l3.444 8.204 1.176-3.584c.355-1.083.532-2.035.532-2.856 0-.877-.187-1.559-.56-2.044a1.938 1.938 0 0 0-1.484-.784v-.588c.691.075 1.671.112 2.94.112zm14.644-.504c1.456 0 2.632.597 3.528 1.792.896 1.195 1.344 2.94 1.344 5.236 0 2.968-.597 5.096-1.792 6.384-1.194 1.27-2.772 1.904-4.732 1.904-1.082 0-1.95-.177-2.604-.532v2.324c0 .859.196 1.456.588 1.792.411.336 1.018.504 1.82.504v.588l-.812-.028c-2.24-.056-3.686-.084-4.34-.084-.56 0-1.848.037-3.864.112v-.588c.579 0 .98-.15 1.204-.448.243-.28.364-.803.364-1.568V8.548c0-.859-.121-1.484-.364-1.876-.224-.392-.625-.588-1.204-.588v-.588c.579.056 1.158.084 1.736.084 1.942 0 3.566-.13 4.872-.392v1.988c.859-1.4 2.278-2.1 4.256-2.1zm-3.276 14.476c1.027 0 1.764-.55 2.212-1.652.467-1.12.7-2.837.7-5.152 0-2.296-.168-3.901-.504-4.816-.336-.933-.793-1.4-1.372-1.4-.541 0-1.017.196-1.428.588-.392.373-.588.85-.588 1.428v10.78c.243.15.57.224.98.224zm19.125-7.98c2.277 0 3.995.373 5.152 1.12 1.157.728 1.736 1.68 1.736 2.856 0 .765-.252 1.484-.756 2.156-.504.672-1.307 1.223-2.408 1.652-1.101.43-2.511.644-4.228.644-.336 0-.896-.019-1.68-.056a55.571 55.571 0 0 0-2.24-.056c-.56 0-1.848.037-3.864.112v-.588c.485 0 .821-.14 1.008-.42.187-.299.28-.83.28-1.596V8.1c0-.765-.093-1.288-.28-1.568-.187-.299-.523-.448-1.008-.448v-.588c1.867.075 3.108.112 3.724.112.616 0 2.007-.037 4.172-.112v.588c-.579 0-.989.15-1.232.448-.224.28-.336.803-.336 1.568v3.5l1.96-.028zm14.98-5.488c-.579 0-.989.15-1.232.448-.224.28-.336.803-.336 1.568v9.296c0 .765.112 1.297.336 1.596.243.28.653.42 1.232.42V20c-2.165-.075-3.565-.112-4.2-.112-.635 0-1.96.037-3.976.112v-.588c.579 0 .98-.14 1.204-.42.243-.299.364-.83.364-1.596V8.1c0-.765-.121-1.288-.364-1.568-.224-.299-.625-.448-1.204-.448v-.588c2.165.075 3.584.112 4.256.112.597 0 1.904-.037 3.92-.112v.588zm-15.876 13.328c1.755 0 2.632-1.185 2.632-3.556 0-1.325-.28-2.268-.84-2.828-.541-.56-1.465-.84-2.772-.84h-.084v6.188c0 .448.065.737.196.868.131.112.42.168.868.168z" fill="#fff"/></g></symbol><symbol id="logo"><g fill="none"><path d="M28.027.22c-1.247.068-3.486.102-5.879.102-2.307 0-4.75-.034-6.186-.102v.7c2.102.103 2.478.462 2.478 3.008v8.255h-7.88V3.928c0-2.546.36-2.905 2.496-3.008v-.7C11.69.288 9.382.322 7.212.322 4.682.322 2.307.288.974.22v.7c2.102.103 2.495.462 2.495 3.008v17.363c0 2.547-.359 2.906-2.495 3.008V25c1.333-.068 3.709-.102 6.238-.102 2.17 0 4.478.034 5.845.102v-.7c-2.102-.103-2.495-.462-2.495-3.009v-8.408h7.878v8.409c0 2.546-.342 2.905-2.478 3.007V25c1.436-.068 3.88-.102 6.186-.102 2.393 0 4.632.034 5.88.102v-.7c-2.086-.103-2.479-.462-2.479-3.009V3.928c0-2.546.36-2.905 2.478-3.008v-.7zm11.357 6.118c-5.435 0-9.007 2.53-9.007 9.604 0 7.058 3.572 9.554 9.007 9.554 5.417 0 8.989-2.495 8.989-9.554 0-7.075-3.572-9.604-8.99-9.604zm0 .7c1.401 0 2.444 2.632 2.444 8.904 0 6.255-1.043 8.853-2.444 8.853-1.402 0-2.461-2.598-2.461-8.853 0-6.272 1.06-8.903 2.46-8.903zm23.148 8.546c4.82-.36 7.007-2.274 7.007-4.649 0-2.358-1.811-4.067-7.246-4.067-1.538 0-3.811.136-6.187.136-1.828 0-3.964-.102-4.904-.136v.735c1.435 0 1.965.563 1.965 2.529v11.62c0 1.95-.53 2.513-1.965 2.513V25c1.008-.034 3.298-.137 5.246-.137 2.53 0 5.11.137 6.614.137 5.332 0 7.11-1.777 7.11-4.683 0-3.024-1.932-4.614-7.64-4.733zm-3.076-5.452c0-2.102.325-2.53 1.299-2.53 2.034 0 2.41 1.76 2.41 3.812 0 2.631-.616 4.033-3.709 4.101v-5.383zm1.401 14.133c-1.042 0-1.4-.393-1.4-2.512v-5.537h.358c2.837 0 3.913 1.23 3.913 4.136 0 1.948-.478 3.913-2.87 3.913zM82.228 6.338c-5.434 0-9.006 2.53-9.006 9.604 0 7.058 3.572 9.554 9.007 9.554 5.417 0 8.989-2.495 8.989-9.554 0-7.075-3.572-9.604-8.99-9.604zm0 .7c1.402 0 2.444 2.632 2.444 8.904 0 6.255-1.042 8.853-2.444 8.853-1.4 0-2.46-2.598-2.46-8.853 0-6.272 1.06-8.903 2.46-8.903zm21.132-.7c-5.075 0-9.006 2.871-9.006 9.604 0 7.058 3.76 9.554 8.442 9.554 4.17 0 6.443-3.128 7.315-5.948l-.598-.222c-1.538 2.136-3.282 2.341-4.239 2.341-2.05 0-4.375-1.281-4.375-6.22 0-3.504.735-8.084 4.068-8.084.632 0 1.076.171 1.401.41-1.538.428-2.871 1.76-2.871 3.504 0 1.863 1.162 3.162 3.213 3.162 1.965 0 3.367-1.487 3.367-3.401 0-1.607-.838-2.906-2.102-3.64-.94-.564-2.581-1.06-4.615-1.06zm24.892.53c-1.111 0-3.486.136-5.845.136-2.307 0-4.648-.136-5.776-.136h-3.948c.171 2.204.239 4.375.239 5.468 0 .974-.034 1.915-.102 2.513h.803c1.231-5.179 3.298-7.246 4.666-7.246h1.008v14.15c0 2.273-1.111 2.512-3.008 2.512V25c1.265-.034 3.709-.137 6.187-.137 2.495 0 4.87.103 6.135.137v-.735c-1.897 0-3.008-.598-3.008-2.871V7.603h1.008c1.368 0 3.435 2.067 4.666 7.246h.803c-.068-.598-.102-1.539-.102-2.513 0-1.093.068-3.264.239-5.468h-3.965zm28.634 0c-1.008.034-3.281.136-5.246.136-1.812 0-3.743-.102-4.615-.136v.735c1.094 0 1.538.495 1.607 2.153l-5.64 11.023V10.132c0-1.966.427-2.53 1.624-2.53v-.734c-.957.034-3.025.136-4.973.136-1.829 0-3.965-.102-4.905-.136v.735c1.435 0 1.965.563 1.965 2.529v11.62c0 1.95-.53 2.513-1.965 2.513V25c1.008-.034 3.298-.137 5.246-.137 1.829 0 3.743.103 4.632.137v-.735c-1.077 0-1.538-.461-1.607-1.965l5.623-11.074v10.527c0 1.948-.427 2.512-1.607 2.512V25c.94-.034 3.008-.137 4.974-.137 1.811 0 3.947.103 4.887.137v-.735c-1.435 0-1.948-.564-1.948-2.512V10.132c0-1.966.513-2.53 1.948-2.53v-.734zm30.968 15.466c-.94-2.341-1.163-4.084-2.239-5.35-.94-1.076-2.53-1.828-5.008-1.828-.512 0-1.076.034-1.657.103 1.213-.65 1.589-1.743 2.016-3.384.804-3.179.906-4.648 3.316-4.802-1.47.769-2.034 1.965-2.034 3.059 0 2.05 2 2.786 3.401 2.786 1.777 0 3.11-1.145 3.11-3.213 0-1.966-1.213-3.367-3.982-3.367-3.042 0-3.571 1.658-4.375 4.939-.683 2.82-1.179 3.93-3.964 4.119v-5.264c0-1.966.529-2.53 1.965-2.53v-.734c-.94.034-3.042.136-4.939.136-1.88 0-4.273-.102-5.281-.136v.735c1.436 0 1.965.563 1.965 2.529v11.62c0 1.95-.529 2.513-1.965 2.513V25c.94-.034 3.11-.137 5.007-.137 1.88 0 4.205.103 5.213.137v-.735c-1.436 0-1.965-.564-1.965-2.512v-5.725c.17-.017.341-.017.495-.017 1.111 0 1.914.41 2.41.974 1.025 1.128 1.623 3.572 1.794 4.375.667 2.94 2.683 3.845 5.777 3.845.871 0 1.777-.068 2.717-.205v-.735c-.974-.137-1.282-.7-1.777-1.931zM206.456 6.97c-.854 0-2.7-.034-3.691-.136v.734c1.452.103 2.563 1.23 2.563 3.52 0 .975-.188 2.171-.666 3.59l-1.453 4.477-4.324-10.254a1.28 1.28 0 0 1-.136-.547c0-.769 1.042-.786 2.102-.786v-.734a63.666 63.666 0 0 1-5.076.205c-1.76 0-3.845-.069-5.708-.205v.734c.495 0 1.23.171 2.034 1.966l8.169 18.047-.188.564c-.633 1.93-1.829 2.802-3.333 2.802-.273 0-.837 0-1.179-.068 1.572-.496 2.273-1.675 2.273-2.7 0-1.71-1.231-2.58-3.162-2.58-2.051 0-3.418 1.042-3.418 2.7 0 2.443 2.837 3.28 4.751 3.28 1.726 0 2.632-.341 3.264-.837.667-.53 1.111-1.333 1.538-2.53l1.47-4.22 4.375-13.023c.769-2.273 1.607-3.076 2.478-3.4v-.736c-.53.103-1.846.137-2.683.137zm21.286-.102c-.872.034-2.974.136-4.341.136-1.572 0-2.581-.136-4.956-.136-1.692 0-2.324.068-3.435.068-.769 0-1.709-.034-2.102-.068v.735c1.811 0 2.785.495 2.785 2.187 0 .103-.017.222-.017.342-.29 3.81-.735 8.528-1.965 11.536-.701 1.76-1.743 3.161-3.247 3.161-.256 0-.427-.034-.53-.068 1.47-.633 2.803-1.726 2.803-3.572 0-1.607-.991-3.076-3.042-3.076-1.966 0-3.367 1.282-3.367 3.486 0 2.803 2.239 3.897 3.948 3.897 1.828 0 3.162-1.197 4.136-3.64 1.23-3.128 1.606-7.315 1.999-11.724.171-1.863.137-2.53 1.504-2.53h.308c1.196 0 1.606.564 1.606 2.53v11.62c0 1.95-.513 2.513-1.948 2.513V25c1.008-.034 3.315-.137 5.212-.137 1.897 0 3.777.103 4.649.137v-.735c-1.18 0-1.607-.564-1.607-2.512V10.132c0-1.966.393-2.53 1.607-2.53v-.734zm13.321 7.605c-.666 0-1.469.017-2.46.05v-4.391c0-1.966.529-2.53 1.965-2.53v-.734c-1.026.034-3.333.136-5.213.136-1.897 0-3.776-.102-4.665-.136v.735c1.196 0 1.623.563 1.623 2.529v11.62c0 1.95-.427 2.513-1.623 2.513V25c.957-.034 3.093-.137 4.836-.137 2 0 3.401.137 4.905.137 6.785 0 9.229-2.905 9.229-5.571 0-2.786-2.649-4.956-8.597-4.956zm-1.127 9.792c-1.077 0-1.333-.17-1.333-1.299v-7.724h.102c3.298 0 4.529 1.247 4.529 4.58 0 2.273-.632 4.443-3.298 4.443zm26.668-17.397c-1.11 0-3.486.136-5.844.136-2.307 0-4.649-.136-5.777-.136h-3.947c.171 2.204.239 4.375.239 5.468 0 .974-.034 1.915-.103 2.513h.804c1.23-5.179 3.298-7.246 4.665-7.246h1.008v14.15c0 2.273-1.11 2.512-3.007 2.512V25c1.264-.034 3.708-.137 6.186-.137 2.495 0 4.871.103 6.135.137v-.735c-1.897 0-3.007-.598-3.007-2.871V7.603h1.008c1.367 0 3.435 2.067 4.665 7.246h.804c-.069-.598-.103-1.539-.103-2.513 0-1.093.068-3.264.239-5.468h-3.965zm21.748.102c-.855 0-2.701-.034-3.692-.136v.734c1.453.103 2.564 1.23 2.564 3.52 0 .975-.188 2.171-.667 3.59l-1.453 4.477-4.323-10.254a1.27 1.27 0 0 1-.137-.547c0-.769 1.043-.786 2.102-.786v-.734a63.624 63.624 0 0 1-5.076.205c-1.76 0-3.845-.069-5.708-.205v.734c.496 0 1.231.171 2.034 1.966l8.169 18.047-.188.564c-.632 1.93-1.829 2.802-3.332 2.802-.274 0-.838 0-1.18-.068 1.573-.496 2.273-1.675 2.273-2.7 0-1.71-1.23-2.58-3.161-2.58-2.051 0-3.418 1.042-3.418 2.7 0 2.443 2.837 3.28 4.751 3.28 1.726 0 2.632-.341 3.264-.837.666-.53 1.111-1.333 1.538-2.53l1.47-4.22 4.375-13.023c.769-2.273 1.606-3.076 2.478-3.4v-.736c-.53.103-1.846.137-2.683.137zm18.038-.632c-2.375 0-4.221.854-5.315 2.632V6.492c-1.743.341-3.742.478-6.084.478-.7 0-1.435-.034-2.17-.102v.735c1.47 0 1.965.974 1.965 3.076v17.397c0 1.965-.53 2.53-1.965 2.53v.734c.94-.034 2.939-.154 4.819-.154 2.598 0 5.161.12 6.443.154v-.735c-1.88 0-3.008-.598-3.008-2.87v-2.906c.889.496 2.068.667 3.264.667 4.375 0 8.152-2.427 8.152-10.374 0-5.947-2.632-8.784-6.101-8.784zm-4.084 18.098c-.41 0-.872-.068-1.231-.29V10.678c0-1.47 1.231-2.513 2.529-2.513 1.282 0 2.342 1.573 2.342 7.776 0 5.657-1.06 8.494-3.64 8.494zm23.661-9.963c-.667 0-1.47.017-2.461.05v-4.391c0-1.966.53-2.53 1.965-2.53v-.734c-1.025.034-3.332.136-5.212.136-1.897 0-3.777-.102-4.666-.136v.735c1.197 0 1.624.563 1.624 2.529v11.62c0 1.95-.427 2.513-1.624 2.513V25c.957-.034 3.094-.137 4.837-.137 1.999 0 3.401.137 4.904.137 6.785 0 9.229-2.905 9.229-5.571 0-2.786-2.649-4.956-8.596-4.956zm18.713-7.605c-.94.034-3.076.136-4.888.136-1.965 0-4.306-.102-5.332-.136v.735c1.436 0 1.966.563 1.966 2.529v11.62c0 1.95-.53 2.513-1.966 2.513V25c.957-.034 3.162-.137 4.974-.137 1.965 0 4.238.103 5.246.137v-.735c-1.435 0-1.948-.564-1.948-2.512V10.132c0-1.966.513-2.53 1.948-2.53v-.734zm-19.841 17.397c-1.077 0-1.333-.17-1.333-1.299v-7.724h.102c3.299 0 4.529 1.247 4.529 4.58 0 2.273-.632 4.443-3.298 4.443z" fill="#000"/></g></symbol><symbol id="twitter"><g fill="none"><path d="M22 2.13a8.976 8.976 0 0 1-2.592.716A4.554 4.554 0 0 0 21.392.332a8.987 8.987 0 0 1-2.866 1.103A4.492 4.492 0 0 0 15.232 0c-2.493 0-4.513 2.034-4.513 4.544 0 .356.04.703.117 1.036-3.751-.19-7.077-2-9.303-4.748a4.544 4.544 0 0 0-.611 2.284A4.55 4.55 0 0 0 2.93 6.899 4.466 4.466 0 0 1 .885 6.33v.057a4.54 4.54 0 0 0 3.62 4.456 4.488 4.488 0 0 1-2.038.078 4.523 4.523 0 0 0 4.216 3.156 9.02 9.02 0 0 1-5.606 1.945A9.34 9.34 0 0 1 0 15.959 12.716 12.716 0 0 0 6.92 18c8.3 0 12.84-6.924 12.84-12.93 0-.196-.005-.392-.013-.587a9.224 9.224 0 0 0 2.252-2.353" fill="currentColor"/></g></symbol></svg>